<?xml version="1.0" encoding="UTF-8"?>
<svg version="1.1" xmlns="http://www.w3.org/2000/svg" width="500" height="500">
<path d="M0 0 C165 0 330 0 500 0 C500 165 500 330 500 500 C335 500 170 500 0 500 C0 335 0 170 0 0 Z " fill="#F5F3EF" transform="translate(0,0)"/>
<path d="M0 0 C25.74 0 51.48 0 78 0 C76.35 3.63 74.7 7.26 73 11 C72.45614895 14.56396008 72.18884256 17.45866236 72.25 21 C72.26329346 22.47847412 72.26329346 22.47847412 72.27685547 23.98681641 C73.13322315 50.67628468 79.24237094 78.24920975 86 104 C86.2784375 105.0739502 86.556875 106.14790039 86.84375 107.25439453 C91.95137924 131.70096387 91.95137924 131.70096387 105 152 C108.58700042 153.0005836 108.58700042 153.0005836 112 152 C117.77189599 147.12111433 119.57916411 140.68745101 120.23632812 133.36767578 C121.59862793 107.80731009 113.70897647 87.21773342 104.07421875 63.8828125 C103.58381104 62.69349121 103.09340332 61.50416992 102.58813477 60.27880859 C101.64081089 57.99403981 100.68481431 55.71283969 99.71850586 53.43603516 C95.25430526 42.73533571 92.47047762 32.76568574 92.625 21.125 C92.61339844 20.2278125 92.60179688 19.330625 92.58984375 18.40625 C92.61960056 11.68121077 93.82898343 7.66346547 98.14941406 2.36303711 C103.42163855 -1.88492542 111.04634871 -0.60423448 117.4609375 -0.48828125 C118.97692699 -0.47894695 120.49293164 -0.47183375 122.00894165 -0.46684265 C125.98445838 -0.44782083 129.95905071 -0.39876353 133.9342041 -0.34332275 C137.99637347 -0.29202504 142.05869332 -0.2693063 146.12109375 -0.24414062 C154.08115172 -0.1906384 162.04046062 -0.10538606 170 0 C169.58939835 0.6692601 169.17879669 1.3385202 168.75575256 2.02806091 C168.21639572 2.91526321 167.67703888 3.80246552 167.12133789 4.71655273 C166.58698624 5.59206284 166.05263458 6.46757294 165.50209045 7.36961365 C163.35738622 11.1253134 161.85922112 14.98892222 160.4375 19.0625 C160.14359375 19.88411621 159.8496875 20.70573242 159.546875 21.55224609 C156.9808674 28.8314718 154.74200886 36.18316371 152.66992188 43.61621094 C151.94687687 46.18902853 151.20082336 48.75455541 150.453125 51.3203125 C142.01039477 80.54685497 135.24006563 110.18812909 129.38861084 140.03210449 C128.75618977 143.2346363 128.10385721 146.43316349 127.45703125 149.6328125 C123.08210563 170.46874002 123.08210563 170.46874002 127 191 C99.28 191 71.56 191 43 191 C43.99 188.69 44.98 186.38 46 184 C47.82610978 169.83461961 44.23921562 155.61739143 41.4375 141.8125 C40.97616428 139.48427415 40.51555782 137.15590369 40.05566406 134.82739258 C36.73360918 118.1279193 33.16368375 101.51124966 29 85 C28.74798828 83.98921387 28.49597656 82.97842773 28.23632812 81.93701172 C23.45399819 62.83564066 18.01461105 43.91722056 11.9375 25.1875 C11.63344238 24.22787354 11.32938477 23.26824707 11.01611328 22.27954102 C8.36592523 14.27099964 4.6789358 7.0184037 0 0 Z " fill="#010101" transform="translate(8,126)"/>
<path d="M0 0 C1.82649688 1.82649688 1.17270726 4.71667507 1.20532227 7.17211914 C1.21522186 7.81600082 1.22512146 8.45988251 1.23532104 9.12327576 C1.26701528 11.26053131 1.29172449 13.39780913 1.31640625 15.53515625 C1.33696896 17.01346936 1.35796524 18.49177649 1.37937927 19.97007751 C1.43467059 23.86792171 1.48404857 27.76581958 1.53222656 31.66375732 C1.58239019 35.63851723 1.63810301 39.61319884 1.69335938 43.58789062 C1.80102724 51.39186085 1.90245287 59.19589602 2 67 C2.62511475 66.20255371 3.25022949 65.40510742 3.89428711 64.58349609 C9.93186515 57.17600034 20.60745562 54.82920067 29.3046875 51.703125 C40.36721823 48.13525698 40.36721823 48.13525698 50 42 C50.64215333 37.66546502 50.48564529 35.71329152 48 32.0625 C47.01 31.0415625 47.01 31.0415625 46 30 C49.37329915 31.39584792 51.04232662 32.92365611 53 36 C53.93018394 38.79055182 54.14359844 40.56498876 54.18945312 43.45556641 C54.21452942 44.80178574 54.21452942 44.80178574 54.2401123 46.17520142 C54.26047546 47.62375015 54.26047546 47.62375015 54.28125 49.1015625 C54.29965942 50.09376801 54.31806885 51.08597351 54.33703613 52.10824585 C54.41582075 56.35981337 54.48364893 60.61153903 54.55224609 64.86328125 C54.60382385 67.96362509 54.66111694 71.0638263 54.71875 74.1640625 C54.73911316 75.61868393 54.73911316 75.61868393 54.7598877 77.10269165 C54.78496399 78.4394545 54.78496399 78.4394545 54.81054688 79.80322266 C54.82307495 80.5913736 54.83560303 81.37952454 54.84851074 82.19155884 C54.80580208 84.02100633 54.80580208 84.02100633 56 85 C56.12683815 77.97098062 56.21436744 70.9422566 56.2746582 63.91235352 C56.29979315 61.52129081 56.33390633 59.13030486 56.37719727 56.73950195 C56.43789061 53.30140236 56.46622072 49.86431904 56.48828125 46.42578125 C56.51408768 45.35789871 56.5398941 44.29001617 56.56648254 43.18977356 C56.69776539 36.89471345 56.69776539 36.89471345 53.46948242 31.78588867 C52.65455322 31.19654541 51.83962402 30.60720215 51 30 C54.22823979 29.49389097 57.45772365 28.99620093 60.6875 28.5 C61.59951172 28.35691406 62.51152344 28.21382812 63.45117188 28.06640625 C64.33740234 27.93105469 65.22363281 27.79570312 66.13671875 27.65625 C66.94842529 27.53056641 67.76013184 27.40488281 68.59643555 27.27539062 C71.08533405 26.99022277 73.49706689 26.95325261 76 27 C76 27.66 76 28.32 76 29 C77.5159375 28.2575 77.5159375 28.2575 79.0625 27.5 C86.1586353 24.83418889 95.35294799 24.41245971 102.3203125 27.4453125 C103.20460938 27.95835937 104.08890625 28.47140625 105 29 C106.11375 29.61875 106.11375 29.61875 107.25 30.25 C111.58460564 34.58460564 111.23423617 41.25962994 111.27645874 47.00883484 C111.27546173 48.01009903 111.27446472 49.01136322 111.2734375 50.04296875 C111.2937107 52.18945849 111.31456116 54.33594284 111.3359375 56.48242188 C111.35860381 59.84664498 111.37504005 63.21065498 111.38085938 66.57495117 C111.39035638 69.83550872 111.42407893 73.09512202 111.4609375 76.35546875 C111.45336929 77.86647408 111.45336929 77.86647408 111.44564819 79.40800476 C111.45891144 80.34610489 111.47217468 81.28420502 111.48583984 82.25073242 C111.48868988 83.07345139 111.49153992 83.89617035 111.49447632 84.74382019 C111.93365042 87.64751216 111.93365042 87.64751216 116 91 C106.1 91 96.2 91 86 91 C87.32 89.35 88.64 87.7 90 86 C90.56280243 83.79174545 90.56280243 83.79174545 90.45068359 81.52026367 C90.45103607 80.66554977 90.45138855 79.81083588 90.45175171 78.93022156 C90.42536118 77.56290642 90.42536118 77.56290642 90.3984375 76.16796875 C90.40317443 74.21549359 90.40839802 72.26301956 90.4140625 70.31054688 C90.39934656 67.24938551 90.37501357 64.1886809 90.33984375 61.12768555 C90.3130579 58.16139193 90.32280937 55.19681617 90.3359375 52.23046875 C90.30347427 50.87226265 90.30347427 50.87226265 90.27035522 49.48661804 C90.31726671 43.39667688 91.63948844 40.25604587 95.8085022 35.78096008 C97.23317755 34.05484817 97.23317755 34.05484817 96.80599976 31.83683777 C96.14927302 29.80824159 96.14927302 29.80824159 94 29 C92.08535894 28.90254821 90.16711358 28.87023106 88.25 28.875 C87.22390625 28.87242187 86.1978125 28.86984375 85.140625 28.8671875 C82.01532833 28.99935179 79.07734197 29.46031289 76 30 C76.06120189 37.24992901 76.13830064 44.4995049 76.23571491 51.74904346 C76.28044841 55.11530477 76.31969739 58.48144423 76.34643555 61.84790039 C76.3798898 65.71791721 76.43220252 69.58728447 76.48828125 73.45703125 C76.49786613 75.27120293 76.49786613 75.27120293 76.50764465 77.12202454 C76.52743881 78.24296005 76.54723297 79.36389557 76.56762695 80.51879883 C76.57873001 81.50697098 76.58983307 82.49514313 76.60127258 83.51325989 C77.06640922 86.41417386 77.74986376 87.19419718 80 89 C80.66 89.66 81.32 90.32 82 91 C66.16 91 50.32 91 34 91 C34 89.68 34 88.36 34 87 C32.4840625 87.99 32.4840625 87.99 30.9375 89 C24.73325829 92.13547699 17.77107254 91.65208537 11 91 C10.23042969 90.63261719 9.46085938 90.26523437 8.66796875 89.88671875 C4.37031234 88.4583615 0.37886382 89.62836212 -4 90.4375 C-14.70495373 92.369046 -14.70495373 92.369046 -19 91 C-19 89.68 -19 88.36 -19 87 C-19.845625 87.66 -20.69125 88.32 -21.5625 89 C-27.50256183 92.38219847 -34.41804539 91.79954329 -41 91 C-47.92959028 88.78253111 -51.67096413 83.19158264 -55 77 C-55.69304704 75.34412922 -56.36712212 73.67978802 -57 72 C-57.02709444 74.08326131 -57.04643873 76.16662441 -57.0625 78.25 C-57.07410156 79.41015625 -57.08570313 80.5703125 -57.09765625 81.765625 C-57.04530141 85.50117202 -57.04530141 85.50117202 -56 89 C-54.02 89.99 -54.02 89.99 -52 91 C-62.23 91 -72.46 91 -83 91 C-81.68 90.34 -80.36 89.68 -79 89 C-78.07683382 86.23050145 -77.87577814 84.58695522 -77.87402344 81.73144531 C-77.87021667 80.87335266 -77.86640991 80.01526001 -77.86248779 79.13116455 C-77.86146057 78.2061615 -77.86043335 77.28115845 -77.859375 76.328125 C-77.84104414 74.36457176 -77.82147358 72.40102977 -77.80078125 70.4375 C-77.77184289 67.34551029 -77.75000067 64.25424321 -77.74951172 61.16210938 C-77.74616737 58.17513092 -77.71155709 55.18981385 -77.671875 52.203125 C-77.6789447 51.28621887 -77.6860144 50.36931274 -77.69329834 49.42462158 C-77.57136082 42.95684603 -76.06635701 39.99919886 -72 35 C-71.57696494 32.20356756 -71.57696494 32.20356756 -72 30 C-74.67421261 28.6628937 -76.76452194 28.86757344 -79.75 28.875 C-80.77609375 28.87242187 -81.8021875 28.86984375 -82.859375 28.8671875 C-85.98467167 28.99935179 -88.92265803 29.46031289 -92 30 C-91.95837253 37.88409275 -91.8860864 45.7674772 -91.79248047 53.65112305 C-91.76204491 56.33310425 -91.74136468 59.01489752 -91.72900391 61.69702148 C-91.70759728 65.55235559 -91.66095492 69.40668486 -91.609375 73.26171875 C-91.60814636 74.46084396 -91.60691772 75.65996918 -91.60565186 76.89543152 C-91.56132623 83.43465179 -91.56132623 83.43465179 -88.96191406 89.29614258 C-87.9907666 90.139552 -87.9907666 90.139552 -87 91 C-91.25414623 91.02465622 -95.50825498 91.04283899 -99.76245117 91.05493164 C-101.21070073 91.05997101 -102.65894517 91.06680253 -104.10717773 91.07543945 C-106.18474588 91.08752247 -108.26224697 91.09323211 -110.33984375 91.09765625 C-111.59144287 91.10289307 -112.84304199 91.10812988 -114.13256836 91.11352539 C-117 91 -117 91 -118 90 C-119.62779323 90.23738651 -121.25510629 90.47886859 -122.87890625 90.7421875 C-126.57700204 91.19167981 -130.28112777 91.07589535 -134 91 C-134.33 89.68 -134.66 88.36 -135 87 C-135.7734375 87.3609375 -136.546875 87.721875 -137.34375 88.09375 C-149.99401859 93.73000828 -149.99401859 93.73000828 -157.125 91.265625 C-162.23055008 88.97563562 -165.46111032 86.07777937 -168 81 C-168.5104825 75.87843785 -168.64261544 71.41910911 -166.5 66.6875 C-163.84474548 63.83310139 -161.09307383 61.6176311 -157.90234375 59.39453125 C-156.07875934 58.05773528 -154.55202002 56.63904918 -153 55 C-153.886875 54.938125 -154.77375 54.87625 -155.6875 54.8125 C-159.99478434 53.75599629 -161.46685084 52.65071496 -164 49 C-165.07848953 44.57971191 -164.95759983 40.80845082 -162.80859375 36.75 C-157.70198954 30.25292284 -150.02970836 26.6027362 -142 25 C-134.61711982 24.2099023 -128.51595099 25.41217619 -122 29 C-115.29499888 34.72718846 -115.29499888 34.72718846 -114.72825623 39.09364319 C-114.71794876 39.898134 -114.7076413 40.70262482 -114.69702148 41.53149414 C-114.67205849 42.90290306 -114.67205849 42.90290306 -114.64659119 44.30201721 C-114.63817703 45.28645309 -114.62976288 46.27088898 -114.62109375 47.28515625 C-114.60409927 48.29718613 -114.5871048 49.309216 -114.56959534 50.35191345 C-114.51640927 53.58871205 -114.47614146 56.8254976 -114.4375 60.0625 C-114.39360239 63.30300737 -114.34692374 66.5434142 -114.29469299 69.78379822 C-114.26268907 71.801432 -114.23581368 73.81915469 -114.21446228 75.83692932 C-114.20097244 76.74804977 -114.1874826 77.65917023 -114.17358398 78.59790039 C-114.16407211 79.40159561 -114.15456024 80.20529083 -114.14476013 81.03334045 C-114.11962497 83.07770707 -114.11962497 83.07770707 -113 85 C-112.89863783 77.81018098 -112.8285504 70.62054598 -112.78027344 63.43017578 C-112.76014948 60.98381667 -112.7328474 58.53750571 -112.69824219 56.09130859 C-112.64976037 52.57637659 -112.62703872 49.06208016 -112.609375 45.546875 C-112.58872986 44.4519574 -112.56808472 43.35703979 -112.54681396 42.22894287 C-112.54651184 41.20818665 -112.54620972 40.18743042 -112.54589844 39.13574219 C-112.53257477 37.79005157 -112.53257477 37.79005157 -112.51898193 36.41717529 C-113.14722526 33.26017487 -114.59289701 32.04987141 -117 30 C-114.31374546 29.49236135 -111.62631617 28.99372803 -108.9375 28.5 C-108.18533203 28.35691406 -107.43316406 28.21382812 -106.65820312 28.06640625 C-100.9985232 27.03737354 -95.57327324 26.14224225 -90 28 C-89.1028125 27.69707031 -88.205625 27.39414063 -87.28125 27.08203125 C-83.53401365 25.84633545 -80.43920648 25.69950978 -76.5 25.6875 C-75.2315625 25.67074219 -73.963125 25.65398437 -72.65625 25.63671875 C-67.43863658 26.15513547 -64.19451683 27.67634621 -60.6875 31.5625 C-58.12114417 35.26945842 -57.77187609 37.63480677 -57.4375 42.125 C-57.35371094 43.22070312 -57.26992187 44.31640625 -57.18359375 45.4453125 C-57.12300781 46.28835937 -57.06242187 47.13140625 -57 48 C-56.6596875 47.21496094 -56.319375 46.42992187 -55.96875 45.62109375 C-51.61927255 36.19337002 -46.73130015 30.05866421 -37 26 C-33.421875 25.63671875 -33.421875 25.63671875 -29.75 25.6875 C-27.91695313 25.69330078 -27.91695313 25.69330078 -26.046875 25.69921875 C-23 26 -23 26 -21 28 C-22.03125 28.185625 -23.0625 28.37125 -24.125 28.5625 C-28.88558708 29.9502015 -31.43411198 32.85870352 -34 37 C-35.25559227 39.94600055 -36.16802866 42.91153086 -37 46 C-37.33 46.99 -37.66 47.98 -38 49 C-38.6189976 61.13523211 -37.73985135 71.5178555 -31 82 C-28.34332943 84.7588502 -27.2757116 84.99428912 -23.35791016 85.07543945 C-22.2497998 85.05054443 -21.14168945 85.02564941 -20 85 C-19.90739784 74.88195392 -19.83628484 64.76400834 -19.79275131 54.64562511 C-19.77185934 49.94743592 -19.74351254 45.24953623 -19.69824219 40.55151367 C-19.65484152 36.01925619 -19.63087503 31.48727748 -19.62049103 26.95482826 C-19.61308922 25.22399823 -19.59863542 23.49318378 -19.57707977 21.76247215 C-19.54812174 19.34155453 -19.54404068 16.92179483 -19.54589844 14.50073242 C-19.52432678 13.42287476 -19.52432678 13.42287476 -19.50231934 12.32324219 C-19.47583839 10.09265107 -19.47583839 10.09265107 -20 7 C-21.91617168 5.13107798 -21.91617168 5.13107798 -24 4 C-24 3.34 -24 2.68 -24 2 C-21.31306278 1.66148822 -18.62559711 1.329064 -15.9375 1 C-14.80924805 0.85691406 -14.80924805 0.85691406 -13.65820312 0.7109375 C-9.08187739 0.15623135 -4.62025829 -0.19226042 0 0 Z " fill="#272726" transform="translate(313,209)"/>
<path d="M0 0 C6.70500112 5.72718846 6.70500112 5.72718846 7.27174377 10.09364319 C7.28205124 10.898134 7.2923587 11.70262482 7.30297852 12.53149414 C7.32794151 13.90290306 7.32794151 13.90290306 7.35340881 15.30201721 C7.36182297 16.28645309 7.37023712 17.27088898 7.37890625 18.28515625 C7.39590073 19.29718613 7.4128952 20.309216 7.43040466 21.35191345 C7.48359073 24.58871205 7.52385854 27.8254976 7.5625 31.0625 C7.60639761 34.30300737 7.65307626 37.5434142 7.70530701 40.78379822 C7.73731093 42.801432 7.76418632 44.81915469 7.78553772 46.83692932 C7.79902756 47.74804977 7.8125174 48.65917023 7.82641602 49.59790039 C7.83592789 50.40159561 7.84543976 51.20529083 7.85523987 52.03334045 C7.88037503 54.07770707 7.88037503 54.07770707 9 56 C9.10136217 48.81018098 9.1714496 41.62054598 9.21972656 34.43017578 C9.23985052 31.98381667 9.2671526 29.53750571 9.30175781 27.09130859 C9.35023963 23.57637659 9.37296128 20.06208016 9.390625 16.546875 C9.41127014 15.4519574 9.43191528 14.35703979 9.45318604 13.22894287 C9.45348816 12.20818665 9.45379028 11.18743042 9.45410156 10.13574219 C9.46742523 8.79005157 9.46742523 8.79005157 9.48101807 7.41717529 C8.85277474 4.26017487 7.40710299 3.04987141 5 1 C7.68625454 0.49236135 10.37368383 -0.00627197 13.0625 -0.5 C13.81466797 -0.64308594 14.56683594 -0.78617188 15.34179688 -0.93359375 C19.94737072 -1.77097081 24.29573247 -2.24469532 29 -2 C30.72123821 -0.27876179 30.13378201 2.01061479 30.1418457 4.35839844 C30.15239738 6.07588287 30.15239738 6.07588287 30.16316223 7.82806396 C30.16732651 9.07589661 30.17149078 10.32372925 30.17578125 11.609375 C30.19898172 14.22657052 30.22309915 16.84375805 30.24804688 19.4609375 C30.28443992 23.60644506 30.31418782 27.75180506 30.32592773 31.89746094 C30.33796169 35.88504443 30.38158513 39.87201481 30.42578125 43.859375 C30.42387283 45.09911072 30.42196442 46.33884644 30.41999817 47.6161499 C30.43648911 48.77374817 30.45298004 49.93134644 30.4699707 51.12402344 C30.47583694 52.14026794 30.48170319 53.15651245 30.48774719 54.20355225 C31.12784194 57.69790404 32.62118374 59.4205638 35 62 C30.74585377 62.02465622 26.49174502 62.04283899 22.23754883 62.05493164 C20.78929927 62.05997101 19.34105483 62.06680253 17.89282227 62.07543945 C15.81525412 62.08752247 13.73775303 62.09323211 11.66015625 62.09765625 C10.40855713 62.10289307 9.15695801 62.10812988 7.86743164 62.11352539 C5 62 5 62 4 61 C2.37220677 61.23738651 0.74489371 61.47886859 -0.87890625 61.7421875 C-4.57700204 62.19167981 -8.28112777 62.07589535 -12 62 C-12.33 60.68 -12.66 59.36 -13 58 C-14.16015625 58.54140625 -14.16015625 58.54140625 -15.34375 59.09375 C-27.99401859 64.73000828 -27.99401859 64.73000828 -35.125 62.265625 C-40.23055008 59.97563562 -43.46111032 57.07777937 -46 52 C-46.5104825 46.87843785 -46.64261544 42.41910911 -44.5 37.6875 C-41.84474548 34.83310139 -39.09307383 32.6176311 -35.90234375 30.39453125 C-34.07875934 29.05773528 -32.55202002 27.63904918 -31 26 C-31.886875 25.938125 -32.77375 25.87625 -33.6875 25.8125 C-37.99478434 24.75599629 -39.46685084 23.65071496 -42 20 C-43.07848953 15.57971191 -42.95759983 11.80845082 -40.80859375 7.75 C-31.06310126 -4.64908442 -13.45929684 -7.4109805 0 0 Z " fill="#262626" transform="translate(191,238)"/>
<path d="M0 0 C0.7425 0.4125 1.485 0.825 2.25 1.25 C6.58460564 5.58460564 6.23423617 12.25962994 6.27645874 18.00883484 C6.27546173 19.01009903 6.27446472 20.01136322 6.2734375 21.04296875 C6.2937107 23.18945849 6.31456116 25.33594284 6.3359375 27.48242188 C6.35860381 30.84664498 6.37504005 34.21065498 6.38085938 37.57495117 C6.39035638 40.83550872 6.42407893 44.09512202 6.4609375 47.35546875 C6.45336929 48.86647408 6.45336929 48.86647408 6.44564819 50.40800476 C6.45891144 51.34610489 6.47217468 52.28420502 6.48583984 53.25073242 C6.48868988 54.07345139 6.49153992 54.89617035 6.49447632 55.74382019 C6.93365042 58.64751216 6.93365042 58.64751216 11 62 C1.1 62 -8.8 62 -19 62 C-17.02 59.525 -17.02 59.525 -15 57 C-14.43719757 54.79174545 -14.43719757 54.79174545 -14.54931641 52.52026367 C-14.54878769 51.23819283 -14.54878769 51.23819283 -14.54824829 49.93022156 C-14.56584198 49.01867813 -14.58343567 48.1071347 -14.6015625 47.16796875 C-14.59682557 45.21549359 -14.59160198 43.26301956 -14.5859375 41.31054688 C-14.60065344 38.24938551 -14.62498643 35.1886809 -14.66015625 32.12768555 C-14.6869421 29.16139193 -14.67719063 26.19681617 -14.6640625 23.23046875 C-14.68570465 22.32499802 -14.7073468 21.41952728 -14.72964478 20.48661804 C-14.68273329 14.39667688 -13.36051156 11.25604587 -9.1914978 6.78096008 C-7.76682245 5.05484817 -7.76682245 5.05484817 -8.19400024 2.83683777 C-8.85072698 0.80824159 -8.85072698 0.80824159 -11 0 C-12.91464106 -0.09745179 -14.83288642 -0.12976894 -16.75 -0.125 C-17.77609375 -0.12757813 -18.8021875 -0.13015625 -19.859375 -0.1328125 C-22.98467167 -0.00064821 -25.92265803 0.46031289 -29 1 C-28.93879811 8.24992901 -28.86169936 15.4995049 -28.76428509 22.74904346 C-28.71955159 26.11530477 -28.68030261 29.48144423 -28.65356445 32.84790039 C-28.6201102 36.71791721 -28.56779748 40.58728447 -28.51171875 44.45703125 C-28.50532883 45.66647903 -28.4989389 46.87592682 -28.49235535 48.12202454 C-28.46266411 49.80342781 -28.46266411 49.80342781 -28.43237305 51.51879883 C-28.41571846 53.00105705 -28.41571846 53.00105705 -28.39872742 54.51325989 C-27.93359078 57.41417386 -27.25013624 58.19419718 -25 60 C-24.01 60.99 -24.01 60.99 -23 62 C-38.84 62 -54.68 62 -71 62 C-71 49.13 -71 36.26 -71 23 C-71.66 22.67 -72.32 22.34 -73 22 C-72.03578125 21.60167969 -71.0715625 21.20335937 -70.078125 20.79296875 C-68.80196043 20.25810566 -67.52592555 19.72293304 -66.25 19.1875 C-65.29867188 18.79594727 -65.29867188 18.79594727 -64.328125 18.39648438 C-60.89512017 16.94818546 -57.70980293 15.59577657 -55 13 C-54.35784667 8.66546502 -54.51435471 6.71329152 -57 3.0625 C-57.66 2.381875 -58.32 1.70125 -59 1 C-55.62670085 2.39584792 -53.95767338 3.92365611 -52 7 C-51.06981606 9.79055182 -50.85640156 11.56498876 -50.81054688 14.45556641 C-50.79382935 15.35304596 -50.77711182 16.25052551 -50.7598877 17.17520142 C-50.74631226 18.14090057 -50.73273682 19.10659973 -50.71875 20.1015625 C-50.70034058 21.09376801 -50.68193115 22.08597351 -50.66296387 23.10824585 C-50.58417925 27.35981337 -50.51635107 31.61153903 -50.44775391 35.86328125 C-50.39617615 38.96362509 -50.33888306 42.0638263 -50.28125 45.1640625 C-50.26767456 46.13381012 -50.25409912 47.10355774 -50.2401123 48.10269165 C-50.22339478 48.99386688 -50.20667725 49.88504211 -50.18945312 50.80322266 C-50.17692505 51.5913736 -50.16439697 52.37952454 -50.15148926 53.19155884 C-50.19419792 55.02100633 -50.19419792 55.02100633 -49 56 C-48.87316185 48.97098062 -48.78563256 41.9422566 -48.7253418 34.91235352 C-48.70020685 32.52129081 -48.66609367 30.13030486 -48.62280273 27.73950195 C-48.56210939 24.30140236 -48.53377928 20.86431904 -48.51171875 17.42578125 C-48.48591232 16.35789871 -48.4601059 15.29001617 -48.43351746 14.18977356 C-48.30223461 7.89471345 -48.30223461 7.89471345 -51.53051758 2.78588867 C-52.75291138 1.90187378 -52.75291138 1.90187378 -54 1 C-50.77176021 0.49389097 -47.54227635 -0.00379907 -44.3125 -0.5 C-42.94448242 -0.71462891 -42.94448242 -0.71462891 -41.54882812 -0.93359375 C-40.21948242 -1.13662109 -40.21948242 -1.13662109 -38.86328125 -1.34375 C-38.05157471 -1.46943359 -37.23986816 -1.59511719 -36.40356445 -1.72460938 C-33.91466595 -2.00977723 -31.50293311 -2.04674739 -29 -2 C-29 -1.34 -29 -0.68 -29 0 C-27.989375 -0.495 -26.97875 -0.99 -25.9375 -1.5 C-17.56867885 -4.64392208 -7.72379058 -4.48114964 0 0 Z " fill="#262626" transform="translate(418,238)"/>
<path d="M0 0 C1.2684375 -0.01675781 2.536875 -0.03351563 3.84375 -0.05078125 C9.06136342 0.46763547 12.30548317 1.98884621 15.8125 5.875 C18.37885583 9.58195842 18.72812391 11.94730677 19.0625 16.4375 C19.14628906 17.53320312 19.23007813 18.62890625 19.31640625 19.7578125 C19.37699219 20.60085937 19.43757813 21.44390625 19.5 22.3125 C19.8403125 21.52746094 20.180625 20.74242187 20.53125 19.93359375 C24.88072745 10.50587002 29.76869985 4.37116421 39.5 0.3125 C43.078125 -0.05078125 43.078125 -0.05078125 46.75 0 C47.97203125 0.00386719 49.1940625 0.00773438 50.453125 0.01171875 C53.5 0.3125 53.5 0.3125 55.5 2.3125 C53.953125 2.5909375 53.953125 2.5909375 52.375 2.875 C47.61441292 4.2627015 45.06588802 7.17120352 42.5 11.3125 C41.24440773 14.25850055 40.33197134 17.22403086 39.5 20.3125 C39.005 21.7975 39.005 21.7975 38.5 23.3125 C37.8810024 35.44773211 38.76014865 45.8303555 45.5 56.3125 C48.96721304 59.45685515 51.86866353 59.86717919 56.5 60.3125 C54.42140892 63.43038662 53.88238182 64.09234548 50.5 65.3125 C43.13502844 66.11857408 35.29496678 66.70718048 29.14453125 62.00390625 C24.69297006 57.42545971 21.73961645 52.25690253 19.5 46.3125 C19.47290556 48.39576131 19.45356127 50.47912441 19.4375 52.5625 C19.42589844 53.72265625 19.41429687 54.8828125 19.40234375 56.078125 C19.45469859 59.81367202 19.45469859 59.81367202 20.5 63.3125 C21.82 63.9725 23.14 64.6325 24.5 65.3125 C14.27 65.3125 4.04 65.3125 -6.5 65.3125 C-5.18 64.6525 -3.86 63.9925 -2.5 63.3125 C-1.57683382 60.54300145 -1.37577814 58.89945522 -1.37402344 56.04394531 C-1.37021667 55.18585266 -1.36640991 54.32776001 -1.36248779 53.44366455 C-1.36146057 52.5186615 -1.36043335 51.59365845 -1.359375 50.640625 C-1.34104414 48.67707176 -1.32147358 46.71352977 -1.30078125 44.75 C-1.27184289 41.65801029 -1.25000067 38.56674321 -1.24951172 35.47460938 C-1.24616737 32.48763092 -1.21155709 29.50231385 -1.171875 26.515625 C-1.1789447 25.59871887 -1.1860144 24.68181274 -1.19329834 23.73712158 C-1.07136082 17.26934603 0.43364299 14.31169886 4.5 9.3125 C4.92303506 6.51606756 4.92303506 6.51606756 4.5 4.3125 C-0.91829933 1.60335033 -9.76374136 3.03777586 -15.5 4.3125 C-11.23566393 0.04816393 -5.76048821 0.01756246 0 0 Z " fill="#252525" transform="translate(236.5,234.6875)"/>
<path d="M0 0 C1.73229109 3.37340897 2.82216116 6.25459918 2 10 C-1.95713485 14.91142782 -7.14853432 17.15740579 -12.9609375 19.23828125 C-14.96427333 19.82595669 -14.96427333 19.82595669 -16 21 C-16.01697335 23.81357112 -15.9708943 26.59950927 -15.87890625 29.41015625 C-15.85529526 30.25219101 -15.83168427 31.09422577 -15.80735779 31.96177673 C-15.73053055 34.66218131 -15.64658888 37.36231271 -15.5625 40.0625 C-15.50929836 41.88865832 -15.45655786 43.71483014 -15.40429688 45.54101562 C-15.27488979 50.02751809 -15.13910001 54.51378801 -15 59 C-15.33 58.01 -15.66 57.02 -16 56 C-17.16015625 56.54140625 -17.16015625 56.54140625 -18.34375 57.09375 C-30.99401859 62.73000828 -30.99401859 62.73000828 -38.125 60.265625 C-43.23055008 57.97563562 -46.46111032 55.07777937 -49 50 C-49.5104825 44.87843785 -49.64261544 40.41910911 -47.5 35.6875 C-44.84474548 32.83310139 -42.09307383 30.6176311 -38.90234375 28.39453125 C-37.07875934 27.05773528 -35.55202002 25.63904918 -34 24 C-34.886875 23.938125 -35.77375 23.87625 -36.6875 23.8125 C-40.99478434 22.75599629 -42.46685084 21.65071496 -45 18 C-46.07848953 13.57971191 -45.95759983 9.80845082 -43.80859375 5.75 C-32.95090156 -8.06412404 -13.94590045 -9.29726696 0 0 Z " fill="#282828" transform="translate(194,240)"/>
<path d="M0 0 C4.21753056 2.7395925 6.15418735 6.33452115 7.578125 11.125 C7.98986378 14.7972035 7.97199871 18.44067068 7.94921875 22.1328125 C7.96659088 24.27474126 7.98417536 26.41666831 8.00195312 28.55859375 C8.01204621 31.91393072 8.0156153 35.26916014 8.01391602 38.62451172 C8.01748248 41.87760223 8.04479977 45.12986856 8.07421875 48.3828125 C8.06603622 49.3849881 8.0578537 50.3871637 8.04942322 51.41970825 C8.06447655 52.82674515 8.06447655 52.82674515 8.07983398 54.26220703 C8.07966782 55.08270538 8.07950165 55.90320374 8.07933044 56.74856567 C8.54452654 59.85340956 8.54452654 59.85340956 12.578125 64.125 C2.678125 64.125 -7.221875 64.125 -17.421875 64.125 C-16.101875 62.805 -14.781875 61.485 -13.421875 60.125 C-12.85481657 58.02448429 -12.85481657 58.02448429 -12.97119141 55.7746582 C-12.97083893 54.92309647 -12.97048645 54.07153473 -12.97012329 53.19416809 C-12.98771698 52.28060043 -13.00531067 51.36703278 -13.0234375 50.42578125 C-13.01869896 48.47460818 -13.01347511 46.52343623 -13.0078125 44.57226562 C-13.02250801 41.50898736 -13.04677523 38.44616789 -13.08203125 35.38305664 C-13.10886599 32.41757868 -13.09904887 29.45381397 -13.0859375 26.48828125 C-13.11840073 25.1331115 -13.11840073 25.1331115 -13.15151978 23.75056458 C-13.10367979 17.51743393 -11.58424453 14.00930188 -7.71102905 9.12004089 C-6.0600547 6.96094735 -6.0600547 6.96094735 -6.421875 3.125 C-12.66640393 1.04349036 -20.05411679 1.74818741 -26.421875 3.125 C-20.6012416 -2.6956334 -7.36988375 -2.66266768 0 0 Z " fill="#272727" transform="translate(450.421875,235.875)"/>
<path d="M0 0 C1.73229109 3.37340897 2.82216116 6.25459918 2 10 C-3.91896454 16.25644936 -10.80045266 18.57311128 -18.8125 21.375 C-20.67165039 22.04982422 -20.67165039 22.04982422 -22.56835938 22.73828125 C-31.64466185 26 -31.64466185 26 -34 26 C-34 25.34 -34 24.68 -34 24 C-34.886875 23.938125 -35.77375 23.87625 -36.6875 23.8125 C-40.99478434 22.75599629 -42.46685084 21.65071496 -45 18 C-46.07848953 13.57971191 -45.95759983 9.80845082 -43.80859375 5.75 C-32.95090156 -8.06412404 -13.94590045 -9.29726696 0 0 Z " fill="#F0EEEA" transform="translate(194,240)"/>
<path d="M0 0 C3.82560479 3.05259599 5.69085588 5.82525233 6.9375 10.5625 C5.68594743 15.15152611 3.71954119 16.00111331 -0.17700195 18.47729492 C-5.38880173 21.28850267 -10.94643651 23.0475261 -16.5625 24.875 C-17.76197266 25.2771875 -18.96144531 25.679375 -20.19726562 26.09375 C-23.12776546 27.07447505 -26.06173365 28.04284959 -29 29 C-29 28.34 -29 27.68 -29 27 C-30.85625 26.690625 -30.85625 26.690625 -32.75 26.375 C-36.17328532 25.50703936 -36.96704834 25.03542303 -39.5 22.3125 C-41.27755942 18.38705629 -41.67315203 16.2632962 -41 12 C-38.11846784 5.36813202 -32.25178508 2.0864491 -26 -1 C-17.68290893 -4.26742864 -7.97715122 -4.30006437 0 0 Z " fill="#F3F1ED" transform="translate(358,237)"/>
<path d="M0 0 C0.495 0.99 0.495 0.99 1 2 C0.01515625 1.67515625 -0.9696875 1.3503125 -1.984375 1.015625 C-6.11040544 -0.1602729 -9.98204077 -0.29777566 -14.25 -0.25 C-14.95640625 -0.25773438 -15.6628125 -0.26546875 -16.390625 -0.2734375 C-20.13543373 -0.25925262 -21.80915344 -0.12723104 -25 2 C-25.58488562 4.37124598 -25.58488562 4.37124598 -25 7 C-24.01 8.1446875 -24.01 8.1446875 -23 9.3125 C-20.63281774 12.49340116 -20.41163635 14.20213968 -20.6015625 18.06640625 C-21.23156218 21.12375762 -22.8018334 22.86648536 -25 25 C-28.21694364 26.60847182 -31.52137222 26.61309149 -35 26 C-38.84995082 22.8872738 -40.79605283 20.73355091 -41.375 15.8125 C-40.89223692 10.90440868 -39.50782559 8.41386598 -36 5 C-25.21828682 -2.94058606 -12.47304872 -6.19390574 0 0 Z " fill="#272727" transform="translate(358,237)"/>
<path d="M0 0 C-4.99890002 1.64504618 -10.2817018 0.96747781 -15.46875 0.83984375 C-18.70769033 0.98674259 -20.33261194 1.26483685 -23 3 C-22.6011833 6.38994192 -21.93349493 8.09471935 -19.9375 10.9375 C-17.73184672 14.42385519 -17.39822246 15.95949364 -18 20 C-19.24563335 22.74039337 -20.31135445 24.4643868 -22.6875 26.3125 C-26.18551833 27.3524514 -29.42669926 27.6580534 -33 27 C-36.25040606 24.96849621 -37.64351171 23.48451911 -38.546875 19.72265625 C-38.93831191 14.83722253 -38.23554214 11.56549096 -35.1875 7.6875 C-26.28037084 -1.29234042 -11.77393519 -4.9574464 0 0 Z " fill="#303030" transform="translate(187,236)"/>
<path d="M0 0 C0.02465288 4.68139254 0.04283739 9.36274759 0.05493164 14.04418945 C0.05997157 15.63794614 0.0668035 17.23169819 0.07543945 18.82543945 C0.08751999 21.11150253 0.09323155 23.39750467 0.09765625 25.68359375 C0.10281754 26.40026718 0.10797882 27.11694061 0.11329651 27.85533142 C0.11349263 29.57063672 0.06192007 31.28581266 0 33 C-1 34 -1 34 -3.75 34.3125 C-7.75871982 33.92704617 -9.18176546 32.81823454 -12 30 C-15.43714723 24.73611717 -14.55935442 18.00606804 -14 12 C-11.7601045 7.08945987 -5.96665422 0 0 0 Z " fill="#EFEDE9" transform="translate(347,261)"/>
<path d="M0 0 C0.02465288 4.68139254 0.04283739 9.36274759 0.05493164 14.04418945 C0.05997157 15.63794614 0.0668035 17.23169819 0.07543945 18.82543945 C0.08751999 21.11150253 0.09323155 23.39750467 0.09765625 25.68359375 C0.10281754 26.40026718 0.10797882 27.11694061 0.11329651 27.85533142 C0.11349263 29.57063672 0.06192007 31.28581266 0 33 C-1 34 -1 34 -3.75 34.375 C-7 34 -7 34 -9.75 31.875 C-13.79881496 26.70151422 -14.76642045 21.48416029 -14 15 C-12.63083027 8.77545526 -10.19751488 5.6064389 -5 2 C-1.47619048 0 -1.47619048 0 0 0 Z " fill="#F1EFEB" transform="translate(178,261)"/>
<path d="M0 0 C2.375 0.3125 2.375 0.3125 5 1 C7.215015 4.3225225 7.19410876 4.87731591 6.6875 8.625 C6.58824219 9.42164063 6.48898437 10.21828125 6.38671875 11.0390625 C6 13 6 13 5 14 C3.00041636 14.04080783 0.99954746 14.04254356 -1 14 C-3.09678815 10.59271925 -3.4133256 7.96792579 -3 4 C-1.5 1.625 -1.5 1.625 0 0 Z " fill="#444443" transform="translate(434,330)"/>
<path d="M0 0 C2.9375 0.375 2.9375 0.375 6 1 C7.17673198 3.35346396 7.16623866 4.8806033 7.1875 7.5 C7.20167969 8.2940625 7.21585937 9.088125 7.23046875 9.90625 C7 12 7 12 5 14 C2.5 14.25 2.5 14.25 0 14 C-2 12 -2 12 -2.265625 9.94140625 C-2.26046875 9.15636719 -2.2553125 8.37132812 -2.25 7.5625 C-2.25515625 6.78003906 -2.2603125 5.99757813 -2.265625 5.19140625 C-2 3 -2 3 0 0 Z " fill="#414140" transform="translate(444,330)"/>
<path d="M0 0 C2.5 0.1875 2.5 0.1875 5 1 C7.32579101 4.48868651 7.41865457 5.89718519 7 10 C5.8125 12.375 5.8125 12.375 4 14 C1.3125 14.25 1.3125 14.25 -1 14 C-1 13.01 -1 12.02 -1 11 C0.98 11.495 0.98 11.495 3 12 C3.33 11.01 3.66 10.02 4 9 C3.195625 9.020625 2.39125 9.04125 1.5625 9.0625 C-1 9 -1 9 -2 8 C-2.1875 5.0625 -2.1875 5.0625 -2 2 C-1.34 1.34 -0.68 0.68 0 0 Z " fill="#434342" transform="translate(455,330)"/>
<path d="M0 0 C3.63 0 7.26 0 11 0 C11 0.66 11 1.32 11 2 C8.03 2 5.06 2 2 2 C2 3.32 2 4.64 2 6 C4.64 6 7.28 6 10 6 C10 6.66 10 7.32 10 8 C7.36 8 4.72 8 2 8 C2 9.32 2 10.64 2 12 C4.97 12 7.94 12 11 12 C11 12.66 11 13.32 11 14 C7.37 14 3.74 14 0 14 C0 9.38 0 4.76 0 0 Z " fill="#4E4E4D" transform="translate(451,310)"/>
<path d="M0 0 C1.670625 0.061875 1.670625 0.061875 3.375 0.125 C4.035 1.445 4.695 2.765 5.375 4.125 C4.7975 3.815625 4.22 3.50625 3.625 3.1875 C1.53205816 2.19916636 -0.37035275 1.6081387 -2.625 1.125 C-2.66789755 3.05609581 -2.66789755 3.05609581 -1.625 5.125 C1.86297488 6.91771391 1.86297488 6.91771391 5.375 8.125 C4.5 13 4.5 13 3.375 14.125 C-0.0625 14.3125 -0.0625 14.3125 -3.625 14.125 C-4.285 13.465 -4.945 12.805 -5.625 12.125 C-5.625 11.135 -5.625 10.145 -5.625 9.125 C-4.965 9.125 -4.305 9.125 -3.625 9.125 C-3.625 10.115 -3.625 11.105 -3.625 12.125 C-1.645 12.125 0.335 12.125 2.375 12.125 C2.375 11.135 2.375 10.145 2.375 9.125 C1.240625 8.7125 0.10625 8.3 -1.0625 7.875 C-4.625 6.125 -4.625 6.125 -5.6875 4.0625 C-5.56004238 0.11131376 -3.55115777 0.12245372 0 0 Z " fill="#434342" transform="translate(411.625,309.875)"/>
<path d="M0 0 C3.53233755 1.17744585 3.86308075 1.95605641 5.6875 5.0625 C6.12449219 5.79597656 6.56148438 6.52945312 7.01171875 7.28515625 C7.33785156 7.85105469 7.66398437 8.41695313 8 9 C8.33 6.03 8.66 3.06 9 0 C9.66 0 10.32 0 11 0 C11 4.62 11 9.24 11 14 C10.01 14 9.02 14 8 14 C6.39453125 11.8125 6.39453125 11.8125 4.8125 9 C4.28269531 8.071875 3.75289063 7.14375 3.20703125 6.1875 C2.80871094 5.465625 2.41039062 4.74375 2 4 C1.67 7.3 1.34 10.6 1 14 C0.67 14 0.34 14 0 14 C0 9.38 0 4.76 0 0 Z " fill="#333332" transform="translate(424,310)"/>
<path d="M0 0 C2.5625 0.1875 2.5625 0.1875 4.5625 2.1875 C5.0625 4.5625 5.0625 4.5625 4.5625 7.1875 C1.5625 9.5 1.5625 9.5 -1.4375 11.1875 C1.5325 11.6825 1.5325 11.6825 4.5625 12.1875 C4.5625 12.8475 4.5625 13.5075 4.5625 14.1875 C1.5925 14.1875 -1.3775 14.1875 -4.4375 14.1875 C-3.26320902 9.49033609 -2.05990942 9.08542754 1.5625 6.1875 C2.43215506 4.05803397 2.43215506 4.05803397 2.5625 2.1875 C0.58713255 2.53536708 0.58713255 2.53536708 -1.4375 3.1875 C-1.7675 3.8475 -2.0975 4.5075 -2.4375 5.1875 C-3.0975 5.1875 -3.7575 5.1875 -4.4375 5.1875 C-3.32386364 0.25568182 -3.32386364 0.25568182 0 0 Z " fill="#3F3E3E" transform="translate(425.4375,329.8125)"/>
<path d="M0 0 C1.32 0 2.64 0 4 0 C5.4783226 2.95664519 5.06032783 5.74229737 5 9 C3.02 9.99 3.02 9.99 1 11 C-1 9 -1 9 -1.1875 5.5 C-1 2 -1 2 0 0 Z " fill="#E3E1DE" transform="translate(434,332)"/>
<path d="M0 0 C0.66 1.32 1.32 2.64 2 4 C1.443125 3.649375 0.88625 3.29875 0.3125 2.9375 C-2.53886783 1.78154007 -4.08517222 2.19032562 -7 3 C-7 5.64 -7 8.28 -7 11 C-5.35 11.33 -3.7 11.66 -2 12 C-1.34 11.01 -0.68 10.02 0 9 C0.66 9 1.32 9 2 9 C1.625 10.9375 1.625 10.9375 1 13 C-1.79870027 14.39935013 -3.90498792 14.25265405 -7 14 C-8.875 13 -8.875 13 -10 11 C-10.53653931 7.42307129 -10.65701652 4.23673698 -8.9375 1 C-5.97912322 -0.52690415 -3.26283401 -0.18468872 0 0 Z " fill="#313131" transform="translate(447,310)"/>
<path d="M0 0 C1.98 0.495 1.98 0.495 4 1 C4 3.97 4 6.94 4 10 C2.68 10.33 1.36 10.66 0 11 C-1 10 -1 10 -1.1328125 7.96875 C-1.13023437 7.1540625 -1.12765625 6.339375 -1.125 5.5 C-1.12757813 4.6853125 -1.13015625 3.870625 -1.1328125 3.03125 C-1 1 -1 1 0 0 Z " fill="#EBE9E5" transform="translate(445,332)"/>
<path d="M0 0 C0.33 0.66 0.66 1.32 1 2 C0.01386719 1.67515625 -0.97226562 1.3503125 -1.98828125 1.015625 C-6.09417684 -0.15424004 -9.94023123 -0.29785655 -14.1875 -0.25 C-15.23454102 -0.26160156 -15.23454102 -0.26160156 -16.30273438 -0.2734375 C-20.02752063 -0.25926134 -22.8386783 -0.05853506 -26 2 C-26.66 1.34 -27.32 0.68 -28 0 C-18.56308699 -3.82947195 -9.37232367 -4.65413795 0 0 Z " fill="#858482" transform="translate(358,237)"/>
<path d="M0 0 C0.33 0 0.66 0 1 0 C1.33 3.96 1.66 7.92 2 12 C4.97 12 7.94 12 11 12 C11 12.66 11 13.32 11 14 C7.37 14 3.74 14 0 14 C0 9.38 0 4.76 0 0 Z " fill="#3C3C3B" transform="translate(451,310)"/>
<path d="M0 0 C0.33 0 0.66 0 1 0 C1.33 1.65 1.66 3.3 2 5 C3.65 5.33 5.3 5.66 7 6 C6.67 7.32 6.34 8.64 6 10 C5.38125 9.814375 4.7625 9.62875 4.125 9.4375 C1.95839822 8.76313824 1.95839822 8.76313824 0 10 C-1.125 2.25 -1.125 2.25 0 0 Z " fill="#CFCECA" transform="translate(452,333)"/>
<path d="M0 0 C0.66 0.33 1.32 0.66 2 1 C2.1953125 7.0546875 2.1953125 7.0546875 2 9 C1.34 9.66 0.68 10.32 0 11 C0 10.34 0 9.68 0 9 C-2.31 9 -4.62 9 -7 9 C-3.25 5.125 -3.25 5.125 -1 4 C-0.34786708 1.97536745 -0.34786708 1.97536745 0 0 Z " fill="#E8E6E2" transform="translate(430,333)"/>
<path d="M0 0 C1.32 0 2.64 0 4 0 C4 1.65 4 3.3 4 5 C2.68 5.33 1.36 5.66 0 6 C-0.38218767 4.34385343 -0.71395102 2.67542976 -1 1 C-0.67 0.67 -0.34 0.34 0 0 Z " fill="#E0DEDB" transform="translate(455,332)"/>
<path d="M0 0 C0.66 1.32 1.32 2.64 2 4 C1.443125 3.649375 0.88625 3.29875 0.3125 2.9375 C-2.53886783 1.78154007 -4.08517222 2.19032562 -7 3 C-7.33 4.98 -7.66 6.96 -8 9 C-8.33 9 -8.66 9 -9 9 C-10.32 3.6 -10.32 3.6 -9 1.125 C-6.01705366 -0.55290731 -3.35029961 -0.1896396 0 0 Z " fill="#40403F" transform="translate(447,310)"/>
<path d="M0 0 C1.2065625 0.0309375 1.2065625 0.0309375 2.4375 0.0625 C2.1075 0.7225 1.7775 1.3825 1.4375 2.0625 C0.4475 2.3925 -0.5425 2.7225 -1.5625 3.0625 C-1.8925 3.7225 -2.2225 4.3825 -2.5625 5.0625 C-3.2225 5.0625 -3.8825 5.0625 -4.5625 5.0625 C-3.43829114 0.08386076 -3.43829114 0.08386076 0 0 Z " fill="#535252" transform="translate(425.5625,329.9375)"/>
<path d="M0 0 C2.31 0 4.62 0 7 0 C7.66 1.32 8.32 2.64 9 4 C8.46375 3.67 7.9275 3.34 7.375 3 C4.4608939 1.77300796 2.13132292 1.85766714 -1 2 C-0.67 1.34 -0.34 0.68 0 0 Z " fill="#3B3B3A" transform="translate(408,310)"/>
</svg>
